# xmcd CD database file
#
# Track frame offsets:
#	150
#	25655
#	48655
#	66803
#	89300
#	107670
#	139023
#	162655
#	179973
#	206305
#
# Disc length: 2989 seconds
#
# Revision: 1
# Processed by: cddbd v1.5.1PL0 Copyright (c) Steve Scherf et al.
# Submitted via: CDex 1.51
#
DISCID=8d0bab0a
DTITLE=Kenny Drew - By Request
DYEAR=1900
DGENRE=Jazz
TTITLE0=Softly As In A Morning Sunrise
TTITLE1=Misty
TTITLE2=On Green Dolphin Street
TTITLE3=Smoke Gets In Your Eyes
TTITLE4=You'd Be So Nice To Come Home To
TTITLE5=My Funny Valentine
TTITLE6=Lover Come Back To Me
TTITLE7=As Time Goes By
TTITLE8=Fly Me To The Moon
TTITLE9=Round Midnight
EXTD=
EXTT0=
EXTT1=
EXTT2=
EXTT3=
EXTT4=
EXTT5=
EXTT6=
EXTT7=
EXTT8=
EXTT9=
PLAYORDER=
